<?xml version="1.0" encoding="UTF-8"?>
<svg id="_레이어_1" data-name="레이어_1" xmlns="http://www.w3.org/2000/svg" xmlns:xlink="http://www.w3.org/1999/xlink" version="1.1" viewBox="0 0 20.76 20.76">
  <!-- Generator: Adobe Illustrator 30.6.0, SVG Export Plug-In . SVG Version: 2.1.4 Build 109)  -->
  <defs>
    <style>
      .st0 {
        mask: url(#mask);
      }

      .st1 {
        fill: #d9d9d9;
      }

      .st2 {
        mask: url(#mask-1);
      }

      .st3 {
        fill: none;
        stroke: #fff;
      }
    </style>
    <mask id="mask" x="-4.44" y="-4.44" width="29.64" height="29.64" maskUnits="userSpaceOnUse">
      <g id="mask0_210_751">
        <rect class="st1" x="-4.44" y="-4.44" width="29.64" height="29.64"/>
      </g>
    </mask>
    <mask id="mask-1" x="-4.44" y="-4.44" width="29.64" height="29.64" maskUnits="userSpaceOnUse">
      <g id="mask1_210_751">
        <rect class="st1" x="-4.44" y="-4.44" width="29.64" height="29.64"/>
      </g>
    </mask>
  </defs>
  <g class="st0">
    <g class="st2">
      <path class="st3" d="M17.88,11.37c.04-.33.06-.66.05-.99,0-.35-.05-.64-.05-.99l2.12-1.63s.09-.08.12-.13c.03-.05.05-.11.06-.17,0-.06,0-.12,0-.18-.01-.06-.04-.11-.08-.16l-2.02-3.41c-.06-.1-.16-.17-.27-.21-.11-.04-.23-.03-.34.01l-2.53.99c-.53-.41-1.1-.74-1.72-.99l-.36-2.62c-.03-.11-.1-.21-.19-.28-.09-.07-.2-.11-.32-.11h-4.04c-.12,0-.23.04-.32.11-.09.07-.16.17-.19.28l-.41,2.62c-.61.26-1.19.59-1.72.99l-2.53-.99c-.11-.05-.23-.06-.34-.02-.11.04-.21.11-.27.22L.55,7.12c-.05.11-.06.22-.04.34.02.11.07.22.15.31l2.17,1.63c0,.35-.05.64-.05.99s.05.64.05.99l-2.12,1.63s-.09.08-.12.13c-.03.05-.05.11-.06.17,0,.06,0,.12,0,.18.01.06.04.11.08.16l2.02,3.41c.06.1.16.17.27.21.11.04.23.03.34-.01l2.53-.99c.52.41,1.1.74,1.72.99l.41,2.62c.02.12.09.22.18.29.09.07.21.11.33.1h4.04c.12,0,.23-.04.32-.11.09-.07.16-.17.19-.28l.41-2.62c.61-.26,1.18-.59,1.72-.99l2.53.99c.11.05.23.06.34.02.11-.04.21-.11.27-.22l2.02-3.41c.05-.11.06-.22.04-.34-.02-.11-.07-.22-.15-.31l-2.22-1.63ZM10.36,13.84c-.68-.02-1.34-.23-1.9-.62-.56-.39-.99-.94-1.24-1.57-.25-.63-.31-1.33-.16-1.99.14-.67.48-1.27.96-1.75.49-.48,1.1-.8,1.77-.92.67-.13,1.36-.05,1.99.21.63.26,1.16.71,1.54,1.27.38.57.58,1.23.58,1.91,0,.46-.1.92-.28,1.34-.18.42-.44.81-.77,1.13-.33.32-.72.57-1.15.74-.43.17-.88.25-1.35.25Z"/>
    </g>
  </g>
</svg>