<?xml version="1.0" encoding="UTF-8"?>
<svg id="_레이어_1" xmlns="http://www.w3.org/2000/svg" version="1.1" viewBox="0 0 7.59 7.58">
  <!-- Generator: Adobe Illustrator 30.6.0, SVG Export Plug-In . SVG Version: 2.1.4 Build 109)  -->
  <defs>
    <style>
      .st0 {
        fill: #fff;
      }
    </style>
  </defs>
  <path class="st0" d="M6.51,0h-3.63c-.15,0-.3.03-.44.09-.14.06-.27.14-.36.26L.28,2.27c-.18.2-.28.45-.28.71v3.54c0,.14.03.28.08.41.05.13.14.24.24.34s.22.17.35.23c.13.05.27.08.42.08h5.42c.14,0,.28-.03.42-.08.13-.05.25-.13.35-.23s.18-.21.24-.34c.05-.13.08-.27.08-.41V1.06c0-.14-.03-.28-.08-.41s-.14-.24-.24-.34-.22-.17-.35-.23c-.14-.05-.27-.08-.42-.08ZM1.09,3.45c0-.13.05-.26.15-.36.1-.09.23-.14.36-.14h4.36c.14,0,.27.05.36.14.1.09.15.22.15.36s-.05.26-.15.36c-.1.09-.23.14-.36.14H1.59c-.14,0-.27-.05-.36-.14s-.15-.22-.15-.36h0ZM6,6.15H1.63c-.14,0-.27-.05-.36-.14-.1-.09-.15-.22-.15-.36s.05-.26.15-.36c.1-.09.23-.14.36-.14h4.36c.14,0,.27.05.36.14s.15.22.15.36-.05.26-.15.36c-.1.09-.23.14-.36.14Z"/>
</svg>