<?xml version="1.0" encoding="UTF-8"?>
<svg id="_레이어_1" xmlns="http://www.w3.org/2000/svg" version="1.1" viewBox="0 0 11.18 10.23">
  <!-- Generator: Adobe Illustrator 30.6.0, SVG Export Plug-In . SVG Version: 2.1.4 Build 109)  -->
  <defs>
    <style>
      .st0 {
        fill: #fff;
      }
    </style>
  </defs>
  <path class="st0" d="M4.36,1.83l2.06,2.06-4.15,4.15-1.84.2c-.06,0-.12,0-.17-.02s-.1-.05-.15-.09c-.04-.04-.07-.09-.09-.15-.02-.05-.03-.11-.02-.17l.2-1.84L4.36,1.83ZM8.03,1.2l-.97-.97c-.15-.15-.34-.23-.55-.23s-.4.08-.55.23l-.91.91,2.06,2.06.91-.91c.15-.15.23-.34.23-.55s-.08-.4-.23-.55h.01Z"/>
  <path class="st0" d="M9.74,6.83c.35-.32.89-.3,1.21.05.32.35.3.89-.05,1.21l-1.63,1.51c-1.11,1.02-2.9.24-2.9-1.27h0l-1.6,1.64c-.33.34-.88.35-1.22.02s-.35-.88,0-1.22l1.6-1.64c1.08-1.11,2.97-.34,2.97,1.21h0l1.63-1.51Z"/>
</svg>