<?xml version="1.0" encoding="UTF-8"?>
<svg id="_레이어_1" xmlns="http://www.w3.org/2000/svg" xmlns:xlink="http://www.w3.org/1999/xlink" version="1.1" viewBox="0 0 105.41 34.41">
  <!-- Generator: Adobe Illustrator 30.6.0, SVG Export Plug-In . SVG Version: 2.1.4 Build 109)  -->
  <defs>
    <style>
      .st0 {
        fill: none;
      }

      .st1 {
        fill: #ea9989;
      }

      .st2 {
        fill: #e7b497;
      }

      .st3 {
        fill: #fff;
      }

      .st4 {
        fill: #ad94c5;
      }

      .st5 {
        fill: #83c1e1;
      }

      .st6 {
        clip-path: url(#clippath);
      }
    </style>
    <clipPath id="clippath">
      <rect class="st0" width="105.41" height="34.41"/>
    </clipPath>
  </defs>
  <g class="st6">
    <g>
      <path class="st3" d="M69.67,17.91v-3.51h-3.64v-3.51h-3.81v3.51h-2.23v3.52h2.23v5.39c0,1.94,1.58,3.51,3.51,3.51h4.07v-3.52h-2.74c-.58,0-1.05-.47-1.05-1.05v-4.35h3.65Z"/>
      <path class="st3" d="M101.95,13.68h-3.8v13.14h3.8v-13.14Z"/>
      <path class="st3" d="M102.21,10.31c0-1.19-.97-2.16-2.16-2.16s-2.16.97-2.16,2.16.97,2.16,2.16,2.16,2.16-.97,2.16-2.16Z"/>
      <path class="st3" d="M52.43,13.43c-3.77,0-6.83,3.06-6.83,6.83s3.06,6.83,6.83,6.83,6.83-3.06,6.83-6.83-3.06-6.83-6.83-6.83ZM52.43,23.32c-1.69,0-3.06-1.37-3.06-3.06s1.37-3.06,3.06-3.06,3.06,1.37,3.06,3.06-1.37,3.06-3.06,3.06Z"/>
      <path class="st3" d="M94.7,13.68c-2.05,0-3.12.77-3.59,1.24-.04.04-.11.01-.11-.04v-.59c0-.34-.28-.61-.61-.61h-3.2v13.14h3.2c.34,0,.61-.28.61-.61v-6.18c0-.69.25-1.36.75-1.84,1.24-1.19,2.98-.99,2.98-.99h1.41v-3.52h-1.45s0,0,0,0Z"/>
      <path class="st3" d="M81.96,13.68c-.78,0-.72.69-.72.69-1.16-.69-2.53-1.05-4-.93-3.01.23-5.93,3.04-6.26,6.04-.45,4.11,2.76,7.61,6.79,7.61,1.27,0,2.45-.35,3.46-.95v.06c0,.16.06.64.72.64h3.1v-13.15h-3.1,0ZM77.78,23.31c-1.68,0-3.05-1.37-3.05-3.05s1.37-3.05,3.05-3.05,3.05,1.37,3.05,3.05-1.37,3.05-3.05,3.05Z"/>
      <path class="st4" d="M17.28,23.29l-5.12,6.06-5.12-6.06,3.05-3.05,2.07,2.07,2.07-2.07s3.05,3.05,3.05,3.05Z"/>
      <path class="st2" d="M9.11,15.13l-2.07,2.07,2.07,2.07-3.05,3.05L0,17.2l6.06-5.12s3.05,3.05,3.05,3.05Z"/>
      <path class="st1" d="M17.28,11.11l-3.05,3.05-2.07-2.07-2.07,2.07-3.05-3.05,5.11-6.06,5.12,6.06h0Z"/>
      <path class="st5" d="M24.31,17.2l-6.06,5.12-3.05-3.05,2.07-2.07-2.07-2.07,3.05-3.05,6.06,5.12Z"/>
      <path class="st3" d="M41.33,16.22c1.31-.83,2.16-2.32,2.11-3.99-.1-2.46-2.28-4.35-4.78-4.35h-8.79v18.94h8.71c3.01,0,5.66-2.22,5.88-5.17.18-2.37-1.15-4.45-3.12-5.42ZM33.52,11.12h4.18c.99,0,1.8.8,1.8,1.8s-.8,1.8-1.8,1.8h-4.18v-3.59ZM38.24,23.32h-4.71v-4.38h4.71c1.21,0,2.18.98,2.18,2.18s-.98,2.18-2.18,2.18h0Z"/>
    </g>
  </g>
</svg>