<?xml version="1.0" encoding="UTF-8"?>
<svg id="_레이어_1" data-name="레이어_1" xmlns="http://www.w3.org/2000/svg" version="1.1" viewBox="0 0 10 9.76">
  <!-- Generator: Adobe Illustrator 30.6.0, SVG Export Plug-In . SVG Version: 2.1.4 Build 109)  -->
  <defs>
    <style>
      .st0 {
        fill: #fff;
      }
    </style>
  </defs>
  <rect class="st0" x=".51" y=".51" width="3.79" height="3.79" rx=".67" ry=".67" transform="translate(-.99 2.4) rotate(-45)"/>
  <rect class="st0" x=".39" y="5.75" width="4.02" height="4.02" rx=".67" ry=".67"/>
  <path class="st0" d="M9.36.93h0c.85.85.85,2.23,0,3.08h0c-.85.85-2.23.85-3.08,0h0c-.85-.85-.85-2.23,0-3.08h0c.85-.85,2.23-.85,3.08,0Z"/>
  <path class="st0" d="M7.24,6.08c.26-.45.9-.45,1.16,0l1.51,2.61c.26.45-.06,1-.58,1h-3.01c-.52,0-.84-.56-.58-1l1.51-2.61Z"/>
</svg>