<?xml version="1.0" encoding="UTF-8"?>
<svg id="_레이어_1" xmlns="http://www.w3.org/2000/svg" version="1.1" viewBox="0 0 20 20">
  <!-- Generator: Adobe Illustrator 30.6.0, SVG Export Plug-In . SVG Version: 2.1.4 Build 109)  -->
  <defs>
    <style>
      .st0 {
        isolation: isolate;
        opacity: .75;
      }

      .st1 {
        fill: #f7f7f8;
      }
    </style>
  </defs>
  <g class="st0">
    <path d="M10,0h0c5.52,0,10,4.48,10,10h0c0,5.52-4.48,10-10,10h0C4.48,20,0,15.52,0,10h0C0,4.48,4.48,0,10,0Z"/>
  </g>
  <path class="st1" d="M8.58,14.69l-3.42-3.56c-.44-.46-.43-1.19.03-1.63s1.19-.43,1.63.03l1.7,1.77,4.61-5.08c.43-.47,1.16-.51,1.63-.08.47.43.51,1.16.08,1.63l-6.27,6.92h0Z"/>
</svg>